<mxfile host="app.diagrams.net" modified="2023-03-20T16:29:06.689Z" agent="5.0 (Macintosh; Intel Mac OS X 10_15_7) AppleWebKit/537.36 (KHTML, like Gecko) Chrome/111.0.0.0 Safari/537.36" etag="7U7toOo3TNTEcIJ54kA-" version="21.0.8" type="github">
  <diagram name="Pagina-1" id="2gnQn5dsZddcRE8RK6tl">
    <mxGraphModel dx="2261" dy="828" grid="1" gridSize="10" guides="0" tooltips="1" connect="1" arrows="1" fold="1" page="1" pageScale="1" pageWidth="827" pageHeight="1169" math="0" shadow="0">
      <root>
        <mxCell id="0" />
        <mxCell id="1" parent="0" />
        <mxCell id="HYb9EO3i7QYgC3tbqvvC-1" value="" style="rounded=0;whiteSpace=wrap;html=1;" parent="1" vertex="1">
          <mxGeometry x="-8.45" y="40" width="560" height="480" as="geometry" />
        </mxCell>
        <mxCell id="HYb9EO3i7QYgC3tbqvvC-2" value="&lt;b&gt;&lt;font style=&quot;font-size: 16px;&quot;&gt;OUTSOURCING HUB&lt;/font&gt;&lt;/b&gt;" style="text;html=1;align=center;verticalAlign=middle;resizable=0;points=[];autosize=1;strokeColor=none;fillColor=none;" parent="1" vertex="1">
          <mxGeometry x="204" y="50" width="180" height="30" as="geometry" />
        </mxCell>
        <mxCell id="HYb9EO3i7QYgC3tbqvvC-3" value="Developer" style="shape=umlActor;verticalLabelPosition=bottom;verticalAlign=top;html=1;outlineConnect=0;fontSize=16;" parent="1" vertex="1">
          <mxGeometry x="-140" y="270" width="30" height="60" as="geometry" />
        </mxCell>
        <mxCell id="z_wZfcyNCw6IH_FME8vs-10" value="&lt;span style=&quot;caret-color: rgb(0, 0, 0); font-family: Helvetica; font-size: x-small; font-style: normal; font-variant-caps: normal; font-weight: 400; letter-spacing: normal; text-align: center; text-indent: 0px; text-transform: none; word-spacing: 0px; -webkit-text-stroke-width: 0px; text-decoration: none; float: none; display: inline !important;&quot;&gt;&lt;font color=&quot;#333333&quot;&gt;&amp;nbsp;JOB OFFER&lt;/font&gt;&lt;/span&gt;" style="ellipse;whiteSpace=wrap;html=1;fillColor=#f8cecc;strokeColor=#b85450;" parent="1" vertex="1">
          <mxGeometry x="60" y="180" width="120" height="40" as="geometry" />
        </mxCell>
        <mxCell id="z_wZfcyNCw6IH_FME8vs-11" style="edgeStyle=none;rounded=0;orthogonalLoop=1;jettySize=auto;html=1;strokeColor=default;strokeWidth=1;fontSize=10;startArrow=none;startFill=0;endArrow=none;endFill=0;exitX=0;exitY=0.5;exitDx=0;exitDy=0;" parent="1" source="z_wZfcyNCw6IH_FME8vs-10" edge="1">
          <mxGeometry relative="1" as="geometry">
            <mxPoint x="-100" y="310" as="targetPoint" />
            <mxPoint x="70" y="320" as="sourcePoint" />
          </mxGeometry>
        </mxCell>
        <mxCell id="z_wZfcyNCw6IH_FME8vs-12" value="&amp;lt;&amp;lt;extends&amp;gt;&amp;gt;" style="endArrow=block;endFill=0;html=1;rounded=0;dashed=1;entryX=0.5;entryY=1;entryDx=0;entryDy=0;exitX=0;exitY=0.5;exitDx=0;exitDy=0;" parent="1" source="z_wZfcyNCw6IH_FME8vs-13" target="z_wZfcyNCw6IH_FME8vs-10" edge="1">
          <mxGeometry x="-0.014" width="160" relative="1" as="geometry">
            <mxPoint x="225" y="300" as="sourcePoint" />
            <mxPoint x="105" y="230" as="targetPoint" />
            <Array as="points">
              <mxPoint x="180" y="260" />
            </Array>
            <mxPoint as="offset" />
          </mxGeometry>
        </mxCell>
        <mxCell id="z_wZfcyNCw6IH_FME8vs-13" value="&lt;font style=&quot;font-size: 9px;&quot;&gt;ACCEPT JOB OFFER&lt;br style=&quot;font-size: 9px;&quot;&gt;&lt;/font&gt;" style="ellipse;whiteSpace=wrap;html=1;fillColor=#dae8fc;strokeColor=#6c8ebf;fontSize=9;strokeWidth=1;fillStyle=hatch;" parent="1" vertex="1">
          <mxGeometry x="270" y="230" width="80" height="40" as="geometry" />
        </mxCell>
        <mxCell id="z_wZfcyNCw6IH_FME8vs-14" value="&lt;font style=&quot;font-size: 9px;&quot;&gt;DENY JOB OFFER&lt;br style=&quot;font-size: 9px;&quot;&gt;&lt;/font&gt;" style="ellipse;whiteSpace=wrap;html=1;fillColor=#dae8fc;strokeColor=#6c8ebf;fontSize=9;strokeWidth=1;fillStyle=hatch;" parent="1" vertex="1">
          <mxGeometry x="300" y="170" width="100" height="40" as="geometry" />
        </mxCell>
        <mxCell id="z_wZfcyNCw6IH_FME8vs-15" value="&amp;lt;&amp;lt;extends&amp;gt;&amp;gt;" style="endArrow=block;endFill=0;html=1;rounded=0;dashed=1;entryX=1;entryY=0.5;entryDx=0;entryDy=0;exitX=0;exitY=0;exitDx=0;exitDy=0;" parent="1" source="z_wZfcyNCw6IH_FME8vs-14" target="z_wZfcyNCw6IH_FME8vs-10" edge="1">
          <mxGeometry x="-0.014" width="160" relative="1" as="geometry">
            <mxPoint x="260" y="290" as="sourcePoint" />
            <mxPoint x="215" y="220" as="targetPoint" />
            <Array as="points" />
            <mxPoint as="offset" />
          </mxGeometry>
        </mxCell>
      </root>
    </mxGraphModel>
  </diagram>
</mxfile>
